<?xml version="1.0" encoding="UTF-8" standalone="no"?>
<!DOCTYPE svg PUBLIC "-//W3C//DTD SVG 1.1//EN"
 "http://www.w3.org/Graphics/SVG/1.1/DTD/svg11.dtd">
<!-- Generated by graphviz version 2.43.0 (0)
 -->
<!-- Title: tasks Pages: 1 -->
<svg width="3601pt" height="254pt"
 viewBox="0.00 0.00 3601.00 254.28" xmlns="http://www.w3.org/2000/svg" xmlns:xlink="http://www.w3.org/1999/xlink">
<g id="graph0" class="graph" transform="scale(1 1) rotate(0) translate(4 250.28)">
<title>tasks</title>
<text text-anchor="middle" x="1796.5" y="-231.08" font-family="Times,serif" font-size="14.00">Remaining thesis outcomes — 18 September, 15:58 UTC; deadline 22:00 UTC</text>
<!-- science -->
<g id="node1" class="node">
<title>science</title>
<path fill="#e7f4e7" stroke="black" d="M236,-210C236,-210 12,-210 12,-210 6,-210 0,-204 0,-198 0,-198 0,-186 0,-186 0,-180 6,-174 12,-174 12,-174 236,-174 236,-174 242,-174 248,-180 248,-186 248,-186 248,-198 248,-198 248,-204 242,-210 236,-210"/>
<text text-anchor="middle" x="124" y="-195.2" font-family="Helvetica,sans-Serif" font-size="11.00">DONE: science required for current claims</text>
<text text-anchor="middle" x="124" y="-183.2" font-family="Helvetica,sans-Serif" font-size="11.00">Independent checks complete</text>
</g>
<!-- chapters -->
<g id="node2" class="node">
<title>chapters</title>
<path fill="#e7f4e7" stroke="black" d="M482,-210C482,-210 297,-210 297,-210 291,-210 285,-204 285,-198 285,-198 285,-186 285,-186 285,-180 291,-174 297,-174 297,-174 482,-174 482,-174 488,-174 494,-180 494,-186 494,-186 494,-198 494,-198 494,-204 488,-210 482,-210"/>
<text text-anchor="middle" x="389.5" y="-195.2" font-family="Helvetica,sans-Serif" font-size="11.00">DONE: fixed AI v2 + DS v2 packets</text>
<text text-anchor="middle" x="389.5" y="-183.2" font-family="Helvetica,sans-Serif" font-size="11.00">Human review outstanding</text>
</g>
<!-- science&#45;&gt;chapters -->
<g id="edge1" class="edge">
<title>science&#45;&gt;chapters</title>
<path fill="none" stroke="black" d="M248.26,-192C257.02,-192 265.84,-192 274.54,-192"/>
<polygon fill="black" stroke="black" points="274.7,-195.5 284.7,-192 274.7,-188.5 274.7,-195.5"/>
</g>
<!-- joins -->
<g id="node3" class="node">
<title>joins</title>
<path fill="#edf4fa" stroke="black" d="M1319,-214C1319,-214 1079,-214 1079,-214 1073,-214 1067,-208 1067,-202 1067,-202 1067,-182 1067,-182 1067,-176 1073,-170 1079,-170 1079,-170 1319,-170 1319,-170 1325,-170 1331,-176 1331,-182 1331,-182 1331,-202 1331,-202 1331,-208 1325,-214 1319,-214"/>
<text text-anchor="middle" x="1199" y="-201.2" font-family="Helvetica,sans-Serif" font-size="11.00">RUNNING: summaries + chapter consistency</text>
<text text-anchor="middle" x="1199" y="-189.2" font-family="Helvetica,sans-Serif" font-size="11.00">hko_context / submission_surface</text>
<text text-anchor="middle" x="1199" y="-177.2" font-family="Helvetica,sans-Serif" font-size="11.00">final delta ~10m after fixed PDF</text>
</g>
<!-- chapters&#45;&gt;joins -->
<g id="edge2" class="edge">
<title>chapters&#45;&gt;joins</title>
<path fill="none" stroke="black" d="M494,-192C637.05,-192 895.68,-192 1056.49,-192"/>
<polygon fill="black" stroke="black" points="1056.94,-195.5 1066.94,-192 1056.94,-188.5 1056.94,-195.5"/>
</g>
<!-- assembly -->
<g id="node4" class="node">
<title>assembly</title>
<path fill="#edf4fa" stroke="black" d="M1888,-212C1888,-212 1703,-212 1703,-212 1697,-212 1691,-206 1691,-200 1691,-200 1691,-168 1691,-168 1691,-162 1697,-156 1703,-156 1703,-156 1888,-156 1888,-156 1894,-156 1900,-162 1900,-168 1900,-168 1900,-200 1900,-200 1900,-206 1894,-212 1888,-212"/>
<text text-anchor="middle" x="1795.5" y="-199.2" font-family="Helvetica,sans-Serif" font-size="11.00">RUNNING: fixed whole PDF + guide</text>
<text text-anchor="middle" x="1795.5" y="-187.2" font-family="Helvetica,sans-Serif" font-size="11.00">candidate_integrator</text>
<text text-anchor="middle" x="1795.5" y="-175.2" font-family="Helvetica,sans-Serif" font-size="11.00">PDF frozen; checks → ~16:10</text>
<text text-anchor="middle" x="1795.5" y="-163.2" font-family="Helvetica,sans-Serif" font-size="11.00">No chapter&#45;PASS dependency</text>
</g>
<!-- chapters&#45;&gt;assembly -->
<g id="edge4" class="edge">
<title>chapters&#45;&gt;assembly</title>
<path fill="none" stroke="black" d="M494.17,-204.62C500.2,-205.15 506.17,-205.61 512,-206 875.23,-230.14 967.06,-223.98 1331,-216 1483.11,-212.67 1521.49,-214.89 1673,-201 1675.55,-200.77 1678.13,-200.52 1680.73,-200.25"/>
<polygon fill="black" stroke="black" points="1681.27,-203.72 1690.85,-199.18 1680.53,-196.76 1681.27,-203.72"/>
</g>
<!-- chapter_read -->
<g id="node6" class="node">
<title>chapter_read</title>
<path fill="#fff0d2" stroke="black" d="M778.09,-142.53C778.09,-142.53 542.91,-113.47 542.91,-113.47 536.95,-112.74 536.95,-111.26 542.91,-110.53 542.91,-110.53 778.09,-81.47 778.09,-81.47 784.05,-80.74 795.95,-80.74 801.91,-81.47 801.91,-81.47 1037.09,-110.53 1037.09,-110.53 1043.05,-111.26 1043.05,-112.74 1037.09,-113.47 1037.09,-113.47 801.91,-142.53 801.91,-142.53 795.95,-143.26 784.05,-143.26 778.09,-142.53"/>
<text text-anchor="middle" x="790" y="-115.2" font-family="Helvetica,sans-Serif" font-size="11.00">Jörn: chapter argument / intent</text>
<text text-anchor="middle" x="790" y="-103.2" font-family="Helvetica,sans-Serif" font-size="11.00">acceptable, local defects, structural failure?</text>
</g>
<!-- chapters&#45;&gt;chapter_read -->
<g id="edge3" class="edge">
<title>chapters&#45;&gt;chapter_read</title>
<path fill="none" stroke="black" d="M480.43,-173.95C539.81,-162.03 617.94,-146.34 680.73,-133.73"/>
<polygon fill="black" stroke="black" points="681.56,-137.14 690.67,-131.74 680.18,-130.28 681.56,-137.14"/>
</g>
<!-- joins&#45;&gt;assembly -->
<g id="edge5" class="edge">
<title>joins&#45;&gt;assembly</title>
<path fill="none" stroke="black" d="M1331.2,-190.23C1435.83,-188.83 1580.88,-186.87 1680.66,-185.53"/>
<polygon fill="black" stroke="black" points="1680.82,-189.03 1690.78,-185.4 1680.73,-182.03 1680.82,-189.03"/>
</g>
<!-- publish -->
<g id="node5" class="node">
<title>publish</title>
<path fill="#edf4fa" stroke="black" d="M2140,-156C2140,-156 1985,-156 1985,-156 1979,-156 1973,-150 1973,-144 1973,-144 1973,-132 1973,-132 1973,-126 1979,-120 1985,-120 1985,-120 2140,-120 2140,-120 2146,-120 2152,-126 2152,-132 2152,-132 2152,-144 2152,-144 2152,-150 2146,-156 2140,-156"/>
<text text-anchor="middle" x="2062.5" y="-141.2" font-family="Helvetica,sans-Serif" font-size="11.00">Delivery owner: pm_review</text>
<text text-anchor="middle" x="2062.5" y="-129.2" font-family="Helvetica,sans-Serif" font-size="11.00">Publish within 2 min of freeze</text>
</g>
<!-- assembly&#45;&gt;publish -->
<g id="edge6" class="edge">
<title>assembly&#45;&gt;publish</title>
<path fill="none" stroke="black" d="M1900.09,-166.02C1920.68,-162.44 1942.24,-158.7 1962.66,-155.16"/>
<polygon fill="black" stroke="black" points="1963.33,-158.59 1972.58,-153.43 1962.13,-151.7 1963.33,-158.59"/>
</g>
<!-- whole -->
<g id="node7" class="node">
<title>whole</title>
<path fill="#fff0d2" stroke="black" d="M2479.14,-62.18C2479.14,-62.18 2293.86,-33.82 2293.86,-33.82 2287.93,-32.91 2287.93,-31.09 2293.86,-30.18 2293.86,-30.18 2479.14,-1.82 2479.14,-1.82 2485.07,-0.91 2496.93,-0.91 2502.86,-1.82 2502.86,-1.82 2688.14,-30.18 2688.14,-30.18 2694.07,-31.09 2694.07,-32.91 2688.14,-33.82 2688.14,-33.82 2502.86,-62.18 2502.86,-62.18 2496.93,-63.09 2485.07,-63.09 2479.14,-62.18"/>
<text text-anchor="middle" x="2491" y="-35.2" font-family="Helvetica,sans-Serif" font-size="11.00">Jörn: whole PDF submission ready?</text>
<text text-anchor="middle" x="2491" y="-23.2" font-family="Helvetica,sans-Serif" font-size="11.00">First assessment from about 16:20</text>
</g>
<!-- publish&#45;&gt;whole -->
<g id="edge7" class="edge">
<title>publish&#45;&gt;whole</title>
<path fill="none" stroke="black" d="M2136.33,-119.9C2209.46,-101.72 2322.24,-73.69 2400.71,-54.19"/>
<polygon fill="black" stroke="black" points="2401.72,-57.55 2410.58,-51.74 2400.04,-50.75 2401.72,-57.55"/>
</g>
<!-- chapter_read&#45;&gt;whole -->
<g id="edge9" class="edge">
<title>chapter_read&#45;&gt;whole</title>
<path fill="none" stroke="black" stroke-dasharray="5,2" d="M898.28,-93.33C1025.19,-72.89 1243.05,-43 1431.5,-43 1431.5,-43 1431.5,-43 2063.5,-43 2145.37,-43 2236.06,-40.95 2312.68,-38.62"/>
<polygon fill="black" stroke="black" points="2313.03,-42.11 2322.92,-38.3 2312.82,-35.11 2313.03,-42.11"/>
<text text-anchor="middle" x="1795.5" y="-46" font-family="Helvetica,sans-Serif" font-size="10.00">informs assessment</text>
</g>
<!-- repair -->
<g id="node8" class="node">
<title>repair</title>
<path fill="#edf4fa" stroke="black" d="M3158.5,-115C3158.5,-115 2950.5,-115 2950.5,-115 2944.5,-115 2938.5,-109 2938.5,-103 2938.5,-103 2938.5,-83 2938.5,-83 2938.5,-77 2944.5,-71 2950.5,-71 2950.5,-71 3158.5,-71 3158.5,-71 3164.5,-71 3170.5,-77 3170.5,-83 3170.5,-83 3170.5,-103 3170.5,-103 3170.5,-109 3164.5,-115 3158.5,-115"/>
<text text-anchor="middle" x="3054.5" y="-102.2" font-family="Helvetica,sans-Serif" font-size="11.00">Named author + independent reviewer</text>
<text text-anchor="middle" x="3054.5" y="-90.2" font-family="Helvetica,sans-Serif" font-size="11.00">Local 15–45m / structural 1–2h</text>
<text text-anchor="middle" x="3054.5" y="-78.2" font-family="Helvetica,sans-Serif" font-size="11.00">Root prioritizes concrete findings</text>
</g>
<!-- chapter_read&#45;&gt;repair -->
<g id="edge8" class="edge">
<title>chapter_read&#45;&gt;repair</title>
<path fill="none" stroke="black" d="M977.33,-103.11C1105.11,-97.77 1278.53,-92 1431.5,-92 1431.5,-92 1431.5,-92 2492,-92 2641.98,-92 2814.5,-92.36 2928.29,-92.65"/>
<polygon fill="black" stroke="black" points="2928.43,-96.15 2938.43,-92.68 2928.44,-89.15 2928.43,-96.15"/>
<text text-anchor="middle" x="1936.5" y="-95" font-family="Helvetica,sans-Serif" font-size="10.00">defects</text>
</g>
<!-- no_reply -->
<g id="node9" class="node">
<title>no_reply</title>
<path fill="#edf4fa" stroke="black" d="M1504,-164C1504,-164 1361,-164 1361,-164 1355,-164 1349,-158 1349,-152 1349,-152 1349,-132 1349,-132 1349,-126 1355,-120 1361,-120 1361,-120 1504,-120 1504,-120 1510,-120 1516,-126 1516,-132 1516,-132 1516,-152 1516,-152 1516,-158 1510,-164 1504,-164"/>
<text text-anchor="middle" x="1432.5" y="-151.2" font-family="Helvetica,sans-Serif" font-size="11.00">No reply: preserve packet</text>
<text text-anchor="middle" x="1432.5" y="-139.2" font-family="Helvetica,sans-Serif" font-size="11.00">Continue independent work</text>
<text text-anchor="middle" x="1432.5" y="-127.2" font-family="Helvetica,sans-Serif" font-size="11.00">Do not infer acceptance</text>
</g>
<!-- chapter_read&#45;&gt;no_reply -->
<g id="edge10" class="edge">
<title>chapter_read&#45;&gt;no_reply</title>
<path fill="none" stroke="black" d="M978.41,-120.78C1096.85,-126.33 1244.75,-133.25 1338.69,-137.65"/>
<polygon fill="black" stroke="black" points="1338.59,-141.15 1348.74,-138.12 1338.92,-134.16 1338.59,-141.15"/>
<text text-anchor="middle" x="1199" y="-140" font-family="Helvetica,sans-Serif" font-size="10.00">interruption</text>
</g>
<!-- whole&#45;&gt;repair -->
<g id="edge14" class="edge">
<title>whole&#45;&gt;repair</title>
<path fill="none" stroke="black" d="M2642.79,-40.78C2723.46,-46.41 2824.38,-54.96 2914,-67 2919.42,-67.73 2924.94,-68.52 2930.52,-69.37"/>
<polygon fill="black" stroke="black" points="2930.17,-72.86 2940.6,-70.95 2931.26,-65.95 2930.17,-72.86"/>
<text text-anchor="middle" x="2816" y="-70" font-family="Helvetica,sans-Serif" font-size="10.00">defects</text>
</g>
<!-- deliver -->
<g id="node11" class="node">
<title>deliver</title>
<path fill="#e7f4e7" stroke="black" d="M3165,-53C3165,-53 2944,-53 2944,-53 2938,-53 2932,-47 2932,-41 2932,-41 2932,-21 2932,-21 2932,-15 2938,-9 2944,-9 2944,-9 3165,-9 3165,-9 3171,-9 3177,-15 3177,-21 3177,-21 3177,-41 3177,-41 3177,-47 3171,-53 3165,-53"/>
<text text-anchor="middle" x="3054.5" y="-40.2" font-family="Helvetica,sans-Serif" font-size="11.00">OUTCOME: accepted exact PDF delivered</text>
<text text-anchor="middle" x="3054.5" y="-28.2" font-family="Helvetica,sans-Serif" font-size="11.00">Integrator + pm_review</text>
<text text-anchor="middle" x="3054.5" y="-16.2" font-family="Helvetica,sans-Serif" font-size="11.00">Final reserve 20:30–22:00</text>
</g>
<!-- whole&#45;&gt;deliver -->
<g id="edge13" class="edge">
<title>whole&#45;&gt;deliver</title>
<path fill="none" stroke="black" d="M2697.89,-31.63C2772.62,-31.5 2854.98,-31.35 2921.6,-31.23"/>
<polygon fill="black" stroke="black" points="2921.74,-34.73 2931.73,-31.22 2921.73,-27.73 2921.74,-34.73"/>
<text text-anchor="middle" x="2816" y="-35" font-family="Helvetica,sans-Serif" font-size="10.00">PASS + agreed final corrections checked</text>
</g>
<!-- repair&#45;&gt;assembly -->
<g id="edge11" class="edge">
<title>repair&#45;&gt;assembly</title>
<path fill="none" stroke="black" d="M2938.19,-103.89C2930,-104.62 2921.88,-105.33 2914,-106 2575.55,-134.87 2490.96,-142.82 2152,-165 2071.32,-170.28 1980.27,-175.12 1910.51,-178.6"/>
<polygon fill="black" stroke="black" points="1910.19,-175.11 1900.37,-179.1 1910.53,-182.1 1910.19,-175.11"/>
<text text-anchor="middle" x="2217" y="-167" font-family="Helvetica,sans-Serif" font-size="10.00">new fixed snapshot</text>
</g>
<!-- risk -->
<g id="node10" class="node">
<title>risk</title>
<path fill="#fff0e9" stroke="black" d="M3581,-111C3581,-111 3382,-111 3382,-111 3376,-111 3370,-105 3370,-99 3370,-99 3370,-87 3370,-87 3370,-81 3376,-75 3382,-75 3382,-75 3581,-75 3581,-75 3587,-75 3593,-81 3593,-87 3593,-87 3593,-99 3593,-99 3593,-105 3587,-111 3581,-111"/>
<text text-anchor="middle" x="3481.5" y="-96.2" font-family="Helvetica,sans-Serif" font-size="11.00">Major defect unresolved at 20:30</text>
<text text-anchor="middle" x="3481.5" y="-84.2" font-family="Helvetica,sans-Serif" font-size="11.00">Deadline at risk; standard unchanged</text>
</g>
<!-- repair&#45;&gt;risk -->
<g id="edge15" class="edge">
<title>repair&#45;&gt;risk</title>
<path fill="none" stroke="black" d="M3170.51,-93C3229.07,-93 3300.25,-93 3359.62,-93"/>
<polygon fill="black" stroke="black" points="3359.8,-96.5 3369.8,-93 3359.8,-89.5 3359.8,-96.5"/>
<text text-anchor="middle" x="3273.5" y="-96" font-family="Helvetica,sans-Serif" font-size="10.00">major failure persists to reserve</text>
</g>
<!-- no_reply&#45;&gt;assembly -->
<g id="edge12" class="edge">
<title>no_reply&#45;&gt;assembly</title>
<path fill="none" stroke="black" stroke-dasharray="5,2" d="M1516.16,-149.91C1562.34,-154.51 1620.92,-160.64 1673,-167 1675.54,-167.31 1678.12,-167.63 1680.71,-167.96"/>
<polygon fill="black" stroke="black" points="1680.44,-171.45 1690.8,-169.24 1681.32,-164.51 1680.44,-171.45"/>
<text text-anchor="middle" x="1603.5" y="-170" font-family="Helvetica,sans-Serif" font-size="10.00">independent work continues</text>
</g>
</g>
</svg>
