<?xml version="1.0" encoding="UTF-8" standalone="no"?>
<!-- coordination-sha256: a960e98dc0877dee8a954a57938723ef0b191ae49406a732de96b382c2d0aa6e -->
<!DOCTYPE svg PUBLIC "-//W3C//DTD SVG 1.1//EN"
 "http://www.w3.org/Graphics/SVG/1.1/DTD/svg11.dtd">
<!-- Generated by graphviz version 2.43.0 (0)
 -->
<!-- Title: workflows Pages: 1 -->
<svg width="382pt" height="803pt"
 viewBox="0.00 0.00 381.60 803.23" xmlns="http://www.w3.org/2000/svg" xmlns:xlink="http://www.w3.org/1999/xlink">
<g id="graph0" class="graph" transform="scale(1 1) rotate(0) translate(10.8 792.43)">
<title>workflows</title>
<polygon fill="white" stroke="transparent" points="-10.8,10.8 -10.8,-792.43 370.8,-792.43 370.8,10.8 -10.8,10.8"/>
<text text-anchor="middle" x="180" y="-19.2" font-family="sans-serif" font-size="11.00">Workflow migration · prerequisites → dependent</text>
<text text-anchor="middle" x="180" y="-7.2" font-family="sans-serif" font-size="11.00">Blocked ≠ running · parked routes are unselected · thesis STOPPED</text>
<!-- workflow&#45;done -->
<g id="node1" class="node">
<title>workflow&#45;done</title>
<g id="a_node1"><a xlink:title="Selected project&#45;local skills and workflow deliverables integrated and working against the agreed support contract, with evidence and caveats retained; all assignments closed and their sessions released. Plans alone do not establish readiness. Thesis execution remains STOPPED.&#10;blocker: Selected completion package and acceptance criteria are not agreed; delivery, acceptance and session release remain unfinished.&#10;Sources: docs/development&#45;environments.md, docs/coordination/handoff.md">
<path fill="#fce9e5" stroke="#ba6251" stroke-width="2" d="M303.7,-731.46C303.7,-731.46 303.7,-742.67 303.7,-742.67 303.7,-748.28 298.45,-755.85 293.19,-757.81 293.19,-757.81 250.44,-773.77 250.44,-773.77 245.19,-775.73 234.33,-777.69 228.72,-777.69 228.72,-777.69 160.97,-777.69 160.97,-777.69 155.36,-777.69 144.5,-775.73 139.24,-773.77 139.24,-773.77 96.5,-757.81 96.5,-757.81 91.24,-755.85 85.99,-748.28 85.99,-742.67 85.99,-742.67 85.99,-731.46 85.99,-731.46 85.99,-725.85 91.24,-718.28 96.5,-716.32 96.5,-716.32 139.24,-700.36 139.24,-700.36 144.5,-698.4 155.36,-696.44 160.97,-696.44 160.97,-696.44 228.72,-696.44 228.72,-696.44 234.33,-696.44 245.19,-698.4 250.44,-700.36 250.44,-700.36 293.19,-716.32 293.19,-716.32 298.45,-718.28 303.7,-725.85 303.7,-731.46"/>
<path fill="none" stroke="#ba6251" stroke-width="2" d="M307.71,-729.46C307.71,-729.46 307.71,-744.67 307.71,-744.67 307.71,-750.67 302.09,-758.77 296.47,-760.87 296.47,-760.87 251.9,-777.5 251.9,-777.5 246.28,-779.6 234.66,-781.69 228.66,-781.69 228.66,-781.69 161.03,-781.69 161.03,-781.69 155.03,-781.69 143.41,-779.6 137.79,-777.5 137.79,-777.5 93.22,-760.87 93.22,-760.87 87.6,-758.77 81.98,-750.67 81.98,-744.67 81.98,-744.67 81.98,-729.46 81.98,-729.46 81.98,-723.46 87.6,-715.36 93.22,-713.26 93.22,-713.26 137.79,-696.63 137.79,-696.63 143.41,-694.53 155.03,-692.44 161.03,-692.44 161.03,-692.44 228.66,-692.44 228.66,-692.44 234.66,-692.44 246.28,-694.53 251.9,-696.63 251.9,-696.63 296.47,-713.26 296.47,-713.26 302.09,-715.36 307.71,-723.46 307.71,-729.46"/>
<text text-anchor="middle" x="194.84" y="-748.37" font-family="sans-serif" font-size="14.00">PROJECT DONE</text>
<text text-anchor="middle" x="194.84" y="-733.37" font-family="sans-serif" font-size="14.00">Workflow migration</text>
<text text-anchor="middle" x="194.84" y="-718.37" font-family="sans-serif" font-size="14.00">BLOCKED</text>
</a>
</g>
</g>
<!-- workflow&#45;selection -->
<g id="node2" class="node">
<title>workflow&#45;selection</title>
<g id="a_node2"><a xlink:title="Coordinator presents consolidated alternatives, expected outcomes, resource estimates, limitations and precise activation/acceptance scope. Jörn selects migration/knowledge scope and substantial expenditure; retain/defer is a valid explicit disposition.&#10;blocker: Returned proposals and completed route/accounting recommendations need coordinator integration into one reviewable package; Jörn has not selected its scope, substantial expenditure or acceptance criteria.&#10;plan_gap: No complete selected implementation/acceptance package exists. Proposal estimates are not authorization; readiness must not silently mean every proposed feature or pilot.&#10;Sources: docs/coordination/skill&#45;migration&#45;plan.md, docs/coordination/knowledge&#45;evaluation&#45;plan.md, AGENTS.md.commentary.md">
<path fill="#fce9e5" stroke="#ba6251" d="M203.73,-345.99C203.73,-345.99 175.7,-369.01 175.7,-369.01 171.06,-372.82 160.42,-376.63 154.42,-376.63 154.42,-376.63 85.26,-376.63 85.26,-376.63 79.26,-376.63 68.63,-372.82 63.99,-369.01 63.99,-369.01 35.96,-345.99 35.96,-345.99 31.32,-342.18 31.32,-334.57 35.96,-330.76 35.96,-330.76 63.99,-307.74 63.99,-307.74 68.63,-303.93 79.26,-300.12 85.26,-300.12 85.26,-300.12 154.42,-300.12 154.42,-300.12 160.42,-300.12 171.06,-303.93 175.7,-307.74 175.7,-307.74 203.73,-330.76 203.73,-330.76 208.37,-334.57 208.37,-342.18 203.73,-345.99"/>
<text text-anchor="middle" x="119.84" y="-348.28" font-family="sans-serif" font-size="12.00">Select completion</text>
<text text-anchor="middle" x="119.84" y="-335.28" font-family="sans-serif" font-size="12.00">package</text>
<text text-anchor="middle" x="119.84" y="-322.28" font-family="sans-serif" font-size="12.00">BLOCKED</text>
</a>
</g>
</g>
<!-- workflow&#45;delivery -->
<g id="node3" class="node">
<title>workflow&#45;delivery</title>
<g id="a_node3"><a xlink:title="Integrate the selected project&#45;local skills, discovery adapters and other concrete workflow deliverables; retain explicitly accepted deferrals for additional capabilities. Assign owned implementation steps and checks after selection. Plans alone cannot close delivery.&#10;blocker: No implementation/activation package selected; selected communication acceptance is unfinished. Dashboard/map delivery is complete; historical transport cause can remain unknown.&#10;plan_gap: Implementation owners, concrete change list and receiving/review responsibilities must follow selection. This placeholder does not authorize migration, evaluations or host/cloud setup.&#10;Sources: docs/coordination/skill&#45;migration&#45;plan.md, docs/coordination/knowledge&#45;evaluation&#45;plan.md">
<path fill="#fce9e5" stroke="#ba6251" d="M200.84,-548.5C200.84,-548.5 112.84,-548.5 112.84,-548.5 106.84,-548.5 100.84,-542.5 100.84,-536.5 100.84,-536.5 100.84,-513.5 100.84,-513.5 100.84,-507.5 106.84,-501.5 112.84,-501.5 112.84,-501.5 200.84,-501.5 200.84,-501.5 206.84,-501.5 212.84,-507.5 212.84,-513.5 212.84,-513.5 212.84,-536.5 212.84,-536.5 212.84,-542.5 206.84,-548.5 200.84,-548.5"/>
<text text-anchor="middle" x="156.84" y="-534.9" font-family="sans-serif" font-size="12.00">Selected package</text>
<text text-anchor="middle" x="156.84" y="-521.9" font-family="sans-serif" font-size="12.00">delivered</text>
<text text-anchor="middle" x="156.84" y="-508.9" font-family="sans-serif" font-size="12.00">BLOCKED</text>
</a>
</g>
</g>
<!-- workflow&#45;selection&#45;&gt;workflow&#45;delivery -->
<g id="edge4" class="edge">
<title>workflow&#45;selection&#45;&gt;workflow&#45;delivery</title>
<path fill="none" stroke="#78818a" d="M64.21,-369.81C53.58,-378.35 43.89,-388.67 37.84,-400.75 22.57,-431.25 18.61,-449.33 37.84,-477.5 50.93,-496.67 73.21,-507.94 94.97,-514.56"/>
<polygon fill="#78818a" stroke="#78818a" points="94.44,-516.59 100.78,-516.23 95.59,-512.56 94.44,-516.59"/>
</g>
<!-- workflow&#45;communication&#45;acceptance -->
<g id="node6" class="node">
<title>workflow&#45;communication&#45;acceptance</title>
<g id="a_node6"><a xlink:title="Verify bounded message/return delivery for the selected workflow paths, or retain a specifically accepted limitation. Native bounded worker send/return delivery succeeded in this window; legacy independent&#45;session send receipt remains unverified.&#10;blocker: Required communication paths and their acceptance contract have not been selected; native packet delivery does not establish legacy MCP send recovery.&#10;plan_gap: Native subagent send/return worked. Original independent&#45;thread endpoint failure cause lacks evidence; current read connectivity does not prove sends or receipt. Select whether retained&#45;file/manual receipt suffices or a bounded live send/ack test is required.&#10;Sources: docs/development&#45;environments.md">
<path fill="#fce9e5" stroke="#ba6251" d="M204.16,-447.2C204.16,-447.2 179.82,-469.31 179.82,-469.31 175.38,-473.34 164.94,-477.38 158.94,-477.38 158.94,-477.38 98.74,-477.38 98.74,-477.38 92.74,-477.38 82.3,-473.34 77.86,-469.31 77.86,-469.31 53.53,-447.2 53.53,-447.2 49.09,-443.16 49.09,-435.09 53.53,-431.06 53.53,-431.06 77.86,-408.94 77.86,-408.94 82.3,-404.91 92.74,-400.87 98.74,-400.87 98.74,-400.87 158.94,-400.87 158.94,-400.87 164.94,-400.87 175.38,-404.91 179.82,-408.94 179.82,-408.94 204.16,-431.06 204.16,-431.06 208.6,-435.09 208.6,-443.16 204.16,-447.2"/>
<text text-anchor="middle" x="128.84" y="-449.03" font-family="sans-serif" font-size="12.00">Communication</text>
<text text-anchor="middle" x="128.84" y="-436.03" font-family="sans-serif" font-size="12.00">acceptance</text>
<text text-anchor="middle" x="128.84" y="-423.03" font-family="sans-serif" font-size="12.00">BLOCKED</text>
</a>
</g>
</g>
<!-- workflow&#45;selection&#45;&gt;workflow&#45;communication&#45;acceptance -->
<g id="edge11" class="edge">
<title>workflow&#45;selection&#45;&gt;workflow&#45;communication&#45;acceptance</title>
<path fill="none" stroke="#78818a" d="M123.25,-376.71C123.77,-382.48 124.32,-388.49 124.86,-394.4"/>
<polygon fill="#78818a" stroke="#78818a" points="122.8,-394.96 125.44,-400.74 126.98,-394.57 122.8,-394.96"/>
</g>
<!-- workflow&#45;acceptance -->
<g id="node4" class="node">
<title>workflow&#45;acceptance</title>
<g id="a_node4"><a xlink:title="Check selected artifacts and relevant client/environment routes, retain unavailable checks and behavioral limits, and obtain review of the resulting bounded readiness claim. No full thesis checks are implied.&#10;blocker: Selected acceptance criteria and delivered candidate are absent.&#10;plan_gap: Fresh Codex/Claude discovery and selected remote handoff/review checks are unperformed. A behavioral pilot is optional until selected; structural checks alone do not establish reliable behavior.&#10;Sources: docs/coordination/skill&#45;migration&#45;plan.md, docs/coordination/knowledge&#45;evaluation&#45;plan.md, docs/development&#45;environments.md">
<path fill="#fce9e5" stroke="#ba6251" d="M244.84,-608.5C244.84,-608.5 144.84,-608.5 144.84,-608.5 138.84,-608.5 132.84,-602.5 132.84,-596.5 132.84,-596.5 132.84,-584.5 132.84,-584.5 132.84,-578.5 138.84,-572.5 144.84,-572.5 144.84,-572.5 244.84,-572.5 244.84,-572.5 250.84,-572.5 256.84,-578.5 256.84,-584.5 256.84,-584.5 256.84,-596.5 256.84,-596.5 256.84,-602.5 250.84,-608.5 244.84,-608.5"/>
<text text-anchor="middle" x="194.84" y="-593.9" font-family="sans-serif" font-size="12.00">Readiness evidence</text>
<text text-anchor="middle" x="194.84" y="-580.9" font-family="sans-serif" font-size="12.00">BLOCKED</text>
</a>
</g>
</g>
<!-- workflow&#45;delivery&#45;&gt;workflow&#45;acceptance -->
<g id="edge7" class="edge">
<title>workflow&#45;delivery&#45;&gt;workflow&#45;acceptance</title>
<path fill="none" stroke="#78818a" d="M170.35,-548.57C173.94,-554.57 177.82,-561.06 181.41,-567.05"/>
<polygon fill="#78818a" stroke="#78818a" points="179.73,-568.33 184.61,-572.4 183.33,-566.17 179.73,-568.33"/>
</g>
<!-- workflow&#45;acceptance&#45;&gt;workflow&#45;done -->
<g id="edge1" class="edge">
<title>workflow&#45;acceptance&#45;&gt;workflow&#45;done</title>
<path fill="none" stroke="#78818a" d="M182.14,-608.54C177.64,-615.58 173.13,-624.06 170.84,-632.5 166.13,-649.87 168.49,-669.04 173.22,-686.11"/>
<polygon fill="#78818a" stroke="#78818a" points="171.34,-687.15 175.06,-692.3 175.37,-685.95 171.34,-687.15"/>
</g>
<!-- workflow&#45;session&#45;release -->
<g id="node5" class="node">
<title>workflow&#45;session&#45;release</title>
<g id="a_node5"><a xlink:title="Coordinator integrates outcomes, records any pending decisions with a receiving owner, closes completed assignments and releases their sessions. Do not confuse an idle planner with an active owner.&#10;blocker: Coordinator integration and selected workflow delivery/acceptance remain unfinished; bounded worker assignments have ended.&#10;Sources: docs/coordination/README.md">
<path fill="#fce9e5" stroke="#ba6251" d="M278.34,-668.5C278.34,-668.5 189.34,-668.5 189.34,-668.5 183.34,-668.5 177.34,-662.5 177.34,-656.5 177.34,-656.5 177.34,-644.5 177.34,-644.5 177.34,-638.5 183.34,-632.5 189.34,-632.5 189.34,-632.5 278.34,-632.5 278.34,-632.5 284.34,-632.5 290.34,-638.5 290.34,-644.5 290.34,-644.5 290.34,-656.5 290.34,-656.5 290.34,-662.5 284.34,-668.5 278.34,-668.5"/>
<text text-anchor="middle" x="233.84" y="-653.9" font-family="sans-serif" font-size="12.00">Sessions released</text>
<text text-anchor="middle" x="233.84" y="-640.9" font-family="sans-serif" font-size="12.00">BLOCKED</text>
</a>
</g>
</g>
<!-- workflow&#45;acceptance&#45;&gt;workflow&#45;session&#45;release -->
<g id="edge9" class="edge">
<title>workflow&#45;acceptance&#45;&gt;workflow&#45;session&#45;release</title>
<path fill="none" stroke="#78818a" d="M206.33,-608.59C210.27,-614.44 214.72,-621.07 218.89,-627.26"/>
<polygon fill="#78818a" stroke="#78818a" points="217.21,-628.53 222.3,-632.33 220.7,-626.18 217.21,-628.53"/>
</g>
<!-- workflow&#45;session&#45;release&#45;&gt;workflow&#45;done -->
<g id="edge2" class="edge">
<title>workflow&#45;session&#45;release&#45;&gt;workflow&#45;done</title>
<path fill="none" stroke="#78818a" d="M225.95,-668.61C223.45,-674.04 220.54,-680.34 217.53,-686.87"/>
<polygon fill="#78818a" stroke="#78818a" points="215.59,-686.06 214.99,-692.39 219.41,-687.82 215.59,-686.06"/>
</g>
<!-- workflow&#45;communication&#45;acceptance&#45;&gt;workflow&#45;delivery -->
<g id="edge5" class="edge">
<title>workflow&#45;communication&#45;acceptance&#45;&gt;workflow&#45;delivery</title>
<path fill="none" stroke="#78818a" d="M141.37,-477.65C143.34,-483.54 145.34,-489.55 147.23,-495.21"/>
<polygon fill="#78818a" stroke="#78818a" points="145.34,-496.16 149.23,-501.19 149.32,-494.83 145.34,-496.16"/>
</g>
<!-- __completed -->
<g id="node7" class="node">
<title>__completed</title>
<g id="a_node7"><a xlink:title="Separate coordination, browser views and reusable knowledge&#10;Canonical coordination and browser source contract complete; five HTTP checks passed. Prior Chrome inspection unavailable.&#10;Sources: docs/coordination/README.md, docs/coordination/thesis&#45;work.md, docs/coordination/handoff.md&#10;&#10;Route process knowledge into project collaboration guidance&#10;Local collaboration rules and knowledge routing complete; link/state checks passed. Behavioral and post&#45;compaction performance untested.&#10;Sources: AGENTS.md, AGENTS.md.commentary.md, docs/knowledge/README.md&#10;&#10;Set up authorized workstation&#45;only OpenObserve telemetry&#10;Live workstation logs/traces/metrics API&#45;verified after daemon restart. Host implementation complete; maintenance belongs to ~/.dotfiles/INSTALL.md. Browser login unverified.&#10;Sources: docs/development&#45;environments.md, docs/coordination/otel&#45;design.md&#10;&#10;Prepare repository&#45;owned skill migration&#10;Reviewable local skill/discovery migration proposal returned; planner assignment ended. Candidate, activation and fresh&#45;client acceptance remain unselected.&#10;Sources: docs/coordination/skill&#45;migration&#45;plan.md&#10;&#10;Plan process&#45;knowledge cleanup and behavioural evaluation&#10;Reviewable two&#45;link cleanup and bounded forward&#45;pilot proposal returned; planner assignment ended. Cleanup and pilot remain unselected.&#10;Sources: docs/coordination/knowledge&#45;evaluation&#45;plan.md&#10;&#10;Review and consolidate returned skill and knowledge proposals&#10;Reviewed migration and knowledge proposals against returned environment/accounting findings. Recommend nine project&#45;local skills with Claude adapters, conditional host capabilities and retained&#45;packet handoffs; defer controlled behavioral pilot and new messaging infrastructure. Concrete package selection remains Jörn’s decision; no skill activation or execution approval is inferred.&#10;Sources: docs/coordination/skill&#45;migration&#45;plan.md, docs/coordination/knowledge&#45;evaluation&#45;plan.md&#10;&#10;Remaining workflow dependencies visible in the dashboard&#10;Dashboard exposes goal, unfinished dependencies, planning gaps and parked routes; native&#45;width graph has a goal&#45;centered viewport. Local desktop and 390px mobile reviews passed; phone graph requires panning. Source/path/HTTP checks passed. Coordinator owns integration.&#10;Sources: docs/coordination/README.md&#10;&#10;Define support and handoff routes across selected environments&#10;Read&#45;only supported&#45;route matrix returned: local .agents source plus proposed Claude links/import; retained packets and manual host handoff initially. Independent&#45;thread live delivery and SSH persistence remain unverified; Codex Cloud privileged&#45;image/R2 bootstrap assumptions are not validated for Claude.&#10;plan_gap: Claude fresh&#45;clone setup/discovery, cloud&#45;to&#45;host handoff, remote&#45;device review access and reconnect/session continuity have no agreed acceptance route. Required support versus explicitly deferred capabilities is unresolved.&#10;Sources: docs/development&#45;environments.md, docs/coordination/skill&#45;migration&#45;plan.md&#10;&#10;Define truthful usage and spending observations&#10;Read&#45;only recommendation returned: current.json and retained outcomes own durable PM state; OpenObserve is diagnostic. Optional explicit packet&#45;event JSONL&#45;to&#45;OTel helper only if selected; no broker/database. Token/time observations are not billing; quota/USD unknown and independent&#45;root/cloud usage is not covered.&#10;plan_gap: Comparable cloud/Pro usage, semantic task/message journaling and budget&#45;enforcement mechanics are undefined. Numeric thresholds are not agreed; the selected delivery may explicitly defer automation.&#10;Sources: AGENTS.md.commentary.md, docs/development&#45;environments.md&#10;&#10;Completion map and graph projection retained&#10;Goal/dependency map retained in canonical JSON with explicit planning gaps and parked routes; DOT/SVG project shared state with a source&#45;hash drift check. Syntax, missing&#45;dependency/cycle rejection, stale DOT/SVG detection and state/path checks passed. Coordinator owns integration and subsequent refresh.&#10;Sources: docs/coordination/README.md">
<path fill="#e7f1e8" stroke="#93918c" d="M296.34,-276C296.34,-276 169.34,-276 169.34,-276 163.34,-276 157.34,-270 157.34,-264 157.34,-264 157.34,-148 157.34,-148 157.34,-142 163.34,-136 169.34,-136 169.34,-136 296.34,-136 296.34,-136 302.34,-136 308.34,-142 308.34,-148 308.34,-148 308.34,-264 308.34,-264 308.34,-270 302.34,-276 296.34,-276"/>
<text text-anchor="middle" x="232.84" y="-263.2" font-family="sans-serif" font-size="11.00">DONE · owners released</text>
<text text-anchor="middle" x="232.84" y="-251.2" font-family="sans-serif" font-size="11.00">Shared coordination</text>
<text text-anchor="middle" x="232.84" y="-239.2" font-family="sans-serif" font-size="11.00">Local guidance</text>
<text text-anchor="middle" x="232.84" y="-227.2" font-family="sans-serif" font-size="11.00">Workstation OTel</text>
<text text-anchor="middle" x="232.84" y="-215.2" font-family="sans-serif" font-size="11.00">Skill proposal</text>
<text text-anchor="middle" x="232.84" y="-203.2" font-family="sans-serif" font-size="11.00">Knowledge proposal</text>
<text text-anchor="middle" x="232.84" y="-191.2" font-family="sans-serif" font-size="11.00">Proposal integration</text>
<text text-anchor="middle" x="232.84" y="-179.2" font-family="sans-serif" font-size="11.00">Goal and dependency view</text>
<text text-anchor="middle" x="232.84" y="-167.2" font-family="sans-serif" font-size="11.00">Support&#45;route proposal</text>
<text text-anchor="middle" x="232.84" y="-155.2" font-family="sans-serif" font-size="11.00">Accounting proposal</text>
<text text-anchor="middle" x="232.84" y="-143.2" font-family="sans-serif" font-size="11.00">Completion map</text>
</a>
</g>
</g>
<!-- __completed&#45;&gt;workflow&#45;selection -->
<g id="edge3" class="edge">
<title>__completed&#45;&gt;workflow&#45;selection</title>
<path fill="none" stroke="#78818a" d="M173.04,-276.01C167.38,-282.53 161.77,-289 156.44,-295.16"/>
<polygon fill="#78818a" stroke="#78818a" points="154.75,-293.89 152.41,-299.8 157.93,-296.64 154.75,-293.89"/>
</g>
<!-- __completed&#45;&gt;workflow&#45;delivery -->
<g id="edge6" class="edge">
<title>__completed&#45;&gt;workflow&#45;delivery</title>
<path fill="none" stroke="#78818a" d="M245.16,-276.03C251.87,-333.42 253.07,-415.43 219.84,-477.5 215.78,-485.1 209.86,-491.78 203.27,-497.54"/>
<polygon fill="#78818a" stroke="#78818a" points="201.9,-495.94 198.6,-501.38 204.57,-499.19 201.9,-495.94"/>
</g>
<!-- __completed&#45;&gt;workflow&#45;acceptance -->
<g id="edge8" class="edge">
<title>__completed&#45;&gt;workflow&#45;acceptance</title>
<path fill="none" stroke="#78818a" d="M246.08,-276.15C247.21,-284.17 248.18,-292.25 248.84,-300 255.56,-378.65 257.96,-400.03 242.84,-477.5 236.46,-510.19 232.66,-518.19 218.84,-548.5 216.01,-554.71 212.51,-561.18 209.06,-567.1"/>
<polygon fill="#78818a" stroke="#78818a" points="207.19,-566.13 205.93,-572.36 210.8,-568.28 207.19,-566.13"/>
</g>
<!-- __parked -->
<g id="node8" class="node">
<title>__parked</title>
<g id="a_node8"><a xlink:title="Determine why agent communication tools failed&#10;Bounded local diagnosis finished. Same daemon persisted through failures; multiple TUI MCP server processes turned over. Stale endpoint binding is plausible, but old&#45;port ownership, shutdown/rebind evidence and original cause are unavailable. Current list verifies reads only.&#10;blocker: Historical endpoint ownership/binding evidence is unavailable; current successful reads do not establish original cause or legacy send recovery.&#10;plan_gap: Capture failing URL, socket owner/PID and endpoint&#45;binding lifecycle events on the next natural failure. Do not launch repeated investigation or restart the shared daemon.&#10;Sources: docs/coordination/current.json&#10;&#10;Optional local skill candidate, activation and fresh&#45;client tests&#10;Proposed nine&#45;skill local package, Claude discovery adapters and focused acceptance route. Keep outside loaded paths until selected. This is a candidate route, not an assignment.&#10;plan_gap: Initial instruction was inspect/plan/discuss first; migration and activation selection absent.&#10;Sources: docs/coordination/skill&#45;migration&#45;plan.md&#10;&#10;Optional knowledge cleanup and forward pilot&#10;Choose retain&#45;and&#45;observe, two&#45;link cleanup only, or cleanup plus bounded A/E pilot. No model calls or cleanup are launched by this plan.&#10;plan_gap: Scope, owner and resources have not been selected; broader cases and post&#45;compaction validation remain unperformed.&#10;Sources: docs/coordination/knowledge&#45;evaluation&#45;plan.md&#10;&#10;Possible cloud communication, setup and accounting automation&#10;External surfaces remain outside workstation telemetry. Live cloud messaging, detailed returned event logs and enforcement are possible mechanisms; required support and value are undecided.&#10;plan_gap: No agreed need, design, acceptance contract or authorization for cloud automation.&#10;Sources: docs/development&#45;environments.md&#10;&#10;Thesis execution — STOPPED&#10;Previous thesis completion run remains stopped. Backlog availability does not authorize a new execution window.&#10;Sources: docs/coordination/handoff.md">
<path fill="#f1f0ed" stroke="#93918c" d="M323.34,-112C323.34,-112 142.34,-112 142.34,-112 136.34,-112 130.34,-106 130.34,-100 130.34,-100 130.34,-44 130.34,-44 130.34,-38 136.34,-32 142.34,-32 142.34,-32 323.34,-32 323.34,-32 329.34,-32 335.34,-38 335.34,-44 335.34,-44 335.34,-100 335.34,-100 335.34,-106 329.34,-112 323.34,-112"/>
<text text-anchor="middle" x="232.84" y="-99.2" font-family="sans-serif" font-size="11.00">UNSELECTED / PARKED · no execution</text>
<text text-anchor="middle" x="232.84" y="-87.2" font-family="sans-serif" font-size="11.00">Communication diagnosis · BLOCKED</text>
<text text-anchor="middle" x="232.84" y="-75.2" font-family="sans-serif" font-size="11.00">Skill migration candidate · PARKED</text>
<text text-anchor="middle" x="232.84" y="-63.2" font-family="sans-serif" font-size="11.00">Knowledge cleanup / pilot · PARKED</text>
<text text-anchor="middle" x="232.84" y="-51.2" font-family="sans-serif" font-size="11.00">Cloud automation · PARKED</text>
<text text-anchor="middle" x="232.84" y="-39.2" font-family="sans-serif" font-size="11.00">Thesis execution STOPPED · PARKED</text>
</a>
</g>
</g>
<!-- __completed&#45;&gt;__parked -->
<g id="edge10" class="edge">
<title>__completed&#45;&gt;__parked</title>
<path fill="none" stroke="#a9a9a5" stroke-dasharray="5,2" d="M238.09,-135.75C238.07,-129.83 237.99,-123.95 237.86,-118.29"/>
<polygon fill="#a9a9a5" stroke="#a9a9a5" points="239.96,-118.19 237.69,-112.25 235.76,-118.3 239.96,-118.19"/>
</g>
<!-- __parked&#45;&gt;__completed -->
</g>
</svg>
