<?xml version="1.0" encoding="UTF-8" standalone="no"?>
<!DOCTYPE svg PUBLIC "-//W3C//DTD SVG 1.1//EN"
 "http://www.w3.org/Graphics/SVG/1.1/DTD/svg11.dtd">
<!-- Generated by graphviz version 2.43.0 (0)
 -->
<!-- Title: now Pages: 1 -->
<svg width="936pt" height="438pt"
 viewBox="0.00 0.00 936.00 437.50" xmlns="http://www.w3.org/2000/svg" xmlns:xlink="http://www.w3.org/1999/xlink">
<g id="graph0" class="graph" transform="scale(1 1) rotate(0) translate(4 433.5)">
<title>now</title>
<text text-anchor="middle" x="464" y="-414.3" font-family="Times,serif" font-size="14.00">Parallel work now → first whole review — 15:57 UTC</text>
<!-- human -->
<g id="node1" class="node">
<title>human</title>
<path fill="#edf4fa" stroke="black" d="M177,-361C177,-361 12,-361 12,-361 6,-361 0,-355 0,-349 0,-349 0,-329 0,-329 0,-323 6,-317 12,-317 12,-317 177,-317 177,-317 183,-317 189,-323 189,-329 189,-329 189,-349 189,-349 189,-355 183,-361 177,-361"/>
<text text-anchor="middle" x="94.5" y="-348.2" font-family="Helvetica,sans-Serif" font-size="11.00">DS v2 desk&#45;rejected at opening</text>
<text text-anchor="middle" x="94.5" y="-336.2" font-family="Helvetica,sans-Serif" font-size="11.00">AI feedback / revision separate</text>
<text text-anchor="middle" x="94.5" y="-324.2" font-family="Helvetica,sans-Serif" font-size="11.00">No whole&#45;reading request yet</text>
</g>
<!-- authors -->
<g id="node6" class="node">
<title>authors</title>
<path fill="#edf4fa" stroke="black" d="M680.5,-270C680.5,-270 472.5,-270 472.5,-270 466.5,-270 460.5,-264 460.5,-258 460.5,-258 460.5,-238 460.5,-238 460.5,-232 466.5,-226 472.5,-226 472.5,-226 680.5,-226 680.5,-226 686.5,-226 692.5,-232 692.5,-238 692.5,-238 692.5,-258 692.5,-258 692.5,-264 686.5,-270 680.5,-270"/>
<text text-anchor="middle" x="576.5" y="-257.2" font-family="Helvetica,sans-Serif" font-size="11.00">thesis_reader / ds_reader / specialist</text>
<text text-anchor="middle" x="576.5" y="-245.2" font-family="Helvetica,sans-Serif" font-size="11.00">Repair concrete findings as they arrive</text>
<text text-anchor="middle" x="576.5" y="-233.2" font-family="Helvetica,sans-Serif" font-size="11.00">Independent check of substantive fixes</text>
</g>
<!-- human&#45;&gt;authors -->
<g id="edge4" class="edge">
<title>human&#45;&gt;authors</title>
<path fill="none" stroke="black" d="M189.06,-318.63C191.9,-318.08 194.72,-317.53 197.5,-317 281.53,-300.9 376.26,-283.9 449.99,-270.93"/>
<polygon fill="black" stroke="black" points="451.01,-274.3 460.26,-269.12 449.8,-267.41 451.01,-274.3"/>
<text text-anchor="middle" x="373" y="-291" font-family="Helvetica,sans-Serif" font-size="10.00">findings</text>
</g>
<!-- synthesis -->
<g id="node2" class="node">
<title>synthesis</title>
<path fill="#edf4fa" stroke="black" d="M402,-361C402,-361 219,-361 219,-361 213,-361 207,-355 207,-349 207,-349 207,-329 207,-329 207,-323 213,-317 219,-317 219,-317 402,-317 402,-317 408,-317 414,-323 414,-329 414,-329 414,-349 414,-349 414,-355 408,-361 402,-361"/>
<text text-anchor="middle" x="310.5" y="-348.2" font-family="Helvetica,sans-Serif" font-size="11.00">hko_context + submission_surface</text>
<text text-anchor="middle" x="310.5" y="-336.2" font-family="Helvetica,sans-Serif" font-size="11.00">Summaries / consistency</text>
<text text-anchor="middle" x="310.5" y="-324.2" font-family="Helvetica,sans-Serif" font-size="11.00">Final fixed&#45;PDF delta checked</text>
</g>
<!-- build -->
<g id="node3" class="node">
<title>build</title>
<path fill="#edf4fa" stroke="black" d="M916,-361C916,-361 725,-361 725,-361 719,-361 713,-355 713,-349 713,-349 713,-329 713,-329 713,-323 719,-317 725,-317 725,-317 916,-317 916,-317 922,-317 928,-323 928,-329 928,-329 928,-349 928,-349 928,-355 922,-361 916,-361"/>
<text text-anchor="middle" x="820.5" y="-348.2" font-family="Helvetica,sans-Serif" font-size="11.00">candidate_integrator</text>
<text text-anchor="middle" x="820.5" y="-336.2" font-family="Helvetica,sans-Serif" font-size="11.00">Whole PDF, guide, checks</text>
<text text-anchor="middle" x="820.5" y="-324.2" font-family="Helvetica,sans-Serif" font-size="11.00">Visual + synthesis checks complete</text>
</g>
<!-- synthesis&#45;&gt;build -->
<g id="edge1" class="edge">
<title>synthesis&#45;&gt;build</title>
<path fill="none" stroke="black" d="M397.96,-361.02C436.88,-369.74 483.45,-378.7 526,-383 596.26,-390.1 675.39,-377.1 733.92,-363.42"/>
<polygon fill="black" stroke="black" points="734.95,-366.77 743.86,-361.04 733.32,-359.96 734.95,-366.77"/>
<text text-anchor="middle" x="563.5" y="-382" font-family="Helvetica,sans-Serif" font-size="10.00">summary delta</text>
</g>
<!-- publish -->
<g id="node4" class="node">
<title>publish</title>
<path fill="#edf4fa" stroke="black" d="M896.5,-270C896.5,-270 728.5,-270 728.5,-270 722.5,-270 716.5,-264 716.5,-258 716.5,-258 716.5,-238 716.5,-238 716.5,-232 722.5,-226 728.5,-226 728.5,-226 896.5,-226 896.5,-226 902.5,-226 908.5,-232 908.5,-238 908.5,-238 908.5,-258 908.5,-258 908.5,-264 902.5,-270 896.5,-270"/>
<text text-anchor="middle" x="812.5" y="-257.2" font-family="Helvetica,sans-Serif" font-size="11.00">pm_review</text>
<text text-anchor="middle" x="812.5" y="-245.2" font-family="Helvetica,sans-Serif" font-size="11.00">Direct artifact handoff → index</text>
<text text-anchor="middle" x="812.5" y="-233.2" font-family="Helvetica,sans-Serif" font-size="11.00">Within 2 min; no root packaging</text>
</g>
<!-- build&#45;&gt;publish -->
<g id="edge2" class="edge">
<title>build&#45;&gt;publish</title>
<path fill="none" stroke="black" d="M818.6,-316.91C817.62,-306.01 816.41,-292.5 815.32,-280.41"/>
<polygon fill="black" stroke="black" points="818.79,-279.9 814.41,-270.25 811.82,-280.52 818.79,-279.9"/>
</g>
<!-- read -->
<g id="node5" class="node">
<title>read</title>
<path fill="#fff0d2" stroke="black" d="M624.74,-176.59C624.74,-176.59 433.26,-137.41 433.26,-137.41 427.38,-136.2 427.38,-133.8 433.26,-132.59 433.26,-132.59 624.74,-93.41 624.74,-93.41 630.62,-92.2 642.38,-92.2 648.26,-93.41 648.26,-93.41 839.74,-132.59 839.74,-132.59 845.62,-133.8 845.62,-136.2 839.74,-137.41 839.74,-137.41 648.26,-176.59 648.26,-176.59 642.38,-177.8 630.62,-177.8 624.74,-176.59"/>
<text text-anchor="middle" x="636.5" y="-144.2" font-family="Helvetica,sans-Serif" font-size="11.00">Whole&#45;PDF judgment only after</text>
<text text-anchor="middle" x="636.5" y="-132.2" font-family="Helvetica,sans-Serif" font-size="11.00">acceptable DS exposition</text>
<text text-anchor="middle" x="636.5" y="-120.2" font-family="Helvetica,sans-Serif" font-size="11.00">90–150m active estimate; uncertain</text>
</g>
<!-- publish&#45;&gt;read -->
<g id="edge3" class="edge">
<title>publish&#45;&gt;read</title>
<path fill="none" stroke="black" d="M786.92,-225.87C775.21,-216.58 760.96,-205.8 747.5,-197 734.16,-188.28 719.48,-179.61 705.29,-171.66"/>
<polygon fill="black" stroke="black" points="706.98,-168.59 696.53,-166.81 703.58,-174.71 706.98,-168.59"/>
</g>
<!-- read&#45;&gt;authors -->
<g id="edge7" class="edge">
<title>read&#45;&gt;authors</title>
<path fill="none" stroke="black" d="M591.96,-169.93C584.44,-177.92 577.72,-187.05 573.5,-197 571.07,-202.75 570.23,-209.2 570.29,-215.51"/>
<polygon fill="black" stroke="black" points="566.83,-216.16 571.11,-225.85 573.81,-215.6 566.83,-216.16"/>
<text text-anchor="middle" x="592" y="-200" font-family="Helvetica,sans-Serif" font-size="10.00">defects</text>
</g>
<!-- end -->
<g id="node8" class="node">
<title>end</title>
<path fill="#fff0d2" stroke="black" d="M742.5,-44C742.5,-44 530.5,-44 530.5,-44 524.5,-44 518.5,-38 518.5,-32 518.5,-32 518.5,-12 518.5,-12 518.5,-6 524.5,0 530.5,0 530.5,0 742.5,0 742.5,0 748.5,0 754.5,-6 754.5,-12 754.5,-12 754.5,-32 754.5,-32 754.5,-38 748.5,-44 742.5,-44"/>
<text text-anchor="middle" x="636.5" y="-31.2" font-family="Helvetica,sans-Serif" font-size="11.00">20:30 checkpoint</text>
<text text-anchor="middle" x="636.5" y="-19.2" font-family="Helvetica,sans-Serif" font-size="11.00">Minor final repairs → delivery by 22:00</text>
<text text-anchor="middle" x="636.5" y="-7.2" font-family="Helvetica,sans-Serif" font-size="11.00">Major unresolved failure → deadline risk</text>
</g>
<!-- read&#45;&gt;end -->
<g id="edge8" class="edge">
<title>read&#45;&gt;end</title>
<path fill="none" stroke="black" d="M636.5,-90.77C636.5,-78.68 636.5,-65.78 636.5,-54.51"/>
<polygon fill="black" stroke="black" points="640,-54.28 636.5,-44.28 633,-54.28 640,-54.28"/>
<text text-anchor="middle" x="698.5" y="-65" font-family="Helvetica,sans-Serif" font-size="10.00">verdict / remaining scope</text>
</g>
<!-- authors&#45;&gt;build -->
<g id="edge6" class="edge">
<title>authors&#45;&gt;build</title>
<path fill="none" stroke="black" d="M645.54,-270.02C662.92,-275.59 681.47,-281.8 698.5,-288 719.48,-295.64 742.19,-304.72 762.26,-313.03"/>
<polygon fill="black" stroke="black" points="761,-316.3 771.58,-316.91 763.69,-309.83 761,-316.3"/>
<text text-anchor="middle" x="767.5" y="-291" font-family="Helvetica,sans-Serif" font-size="10.00">revised snapshot</text>
</g>
<!-- authors&#45;&gt;read -->
<g id="edge5" class="edge">
<title>authors&#45;&gt;read</title>
<path fill="none" stroke="black" d="M600.62,-225.86C605.75,-220.44 610.74,-214.35 614.5,-208 618.3,-201.58 621.5,-194.45 624.17,-187.24"/>
<polygon fill="black" stroke="black" points="627.61,-188.01 627.51,-177.41 620.98,-185.76 627.61,-188.01"/>
<text text-anchor="middle" x="681.5" y="-200" font-family="Helvetica,sans-Serif" font-size="10.00">acceptable DS exposition</text>
</g>
<!-- root -->
<g id="node7" class="node">
<title>root</title>
<path fill="#edf4fa" stroke="black" d="M683,-361C683,-361 444,-361 444,-361 438,-361 432,-355 432,-349 432,-349 432,-329 432,-329 432,-323 438,-317 444,-317 444,-317 683,-317 683,-317 689,-317 695,-323 695,-329 695,-329 695,-349 695,-349 695,-355 689,-361 683,-361"/>
<text text-anchor="middle" x="563.5" y="-348.2" font-family="Helvetica,sans-Serif" font-size="11.00">Root: dialogue, priorities, decisions</text>
<text text-anchor="middle" x="563.5" y="-336.2" font-family="Helvetica,sans-Serif" font-size="11.00">No build / packaging / PM writing</text>
<text text-anchor="middle" x="563.5" y="-324.2" font-family="Helvetica,sans-Serif" font-size="11.00">Idle not measured; only ~161s explicit waits</text>
</g>
<!-- root&#45;&gt;authors -->
<g id="edge9" class="edge">
<title>root&#45;&gt;authors</title>
<path fill="none" stroke="black" stroke-dasharray="5,2" d="M562.63,-316.96C562.59,-307.99 562.99,-297.43 564.5,-288 564.93,-285.34 565.49,-282.6 566.15,-279.88"/>
<polygon fill="black" stroke="black" points="569.53,-280.77 568.81,-270.2 562.78,-278.92 569.53,-280.77"/>
<text text-anchor="middle" x="631.5" y="-291" font-family="Helvetica,sans-Serif" font-size="10.00">consequential prioritization</text>
</g>
</g>
</svg>
