<?xml version="1.0" encoding="UTF-8" standalone="no"?>
<!DOCTYPE svg PUBLIC "-//W3C//DTD SVG 1.1//EN"
 "http://www.w3.org/Graphics/SVG/1.1/DTD/svg11.dtd">
<!-- Generated by graphviz version 16.0.0 (20260814.1018)
 -->
<!-- Title: risks Pages: 1 -->
<svg width="268pt" height="235pt"
 viewBox="0.00 0.00 268.00 235.00" xmlns="http://www.w3.org/2000/svg" xmlns:xlink="http://www.w3.org/1999/xlink">
<g id="graph0" class="graph" transform="scale(1 1) rotate(0) translate(4 231.2)">
<title>risks</title>
<polygon fill="white" stroke="none" points="-4,4 -4,-231.2 264.29,-231.2 264.29,4 -4,4"/>
<text xml:space="preserve" text-anchor="middle" x="130.15" y="-210.6" font-family="Times,serif" font-size="14.00">2 / shared causes and capacity risks</text>
<!-- outcome -->
<g id="node1" class="node">
<title>outcome</title>
<polygon fill="none" stroke="black" points="226.02,-202.4 34.27,-202.4 34.27,-166.4 226.02,-166.4 226.02,-202.4"/>
<text xml:space="preserve" text-anchor="middle" x="130.15" y="-180.2" font-family="Times,serif" font-size="14.00">OUTCOME: adjusted portfolio</text>
</g>
<!-- crux -->
<g id="node2" class="node">
<title>crux</title>
<polygon fill="none" stroke="black" points="130.15,-130.4 0,-112.4 130.15,-94.4 260.29,-112.4 130.15,-130.4"/>
<text xml:space="preserve" text-anchor="middle" x="130.15" y="-108.2" font-family="Times,serif" font-size="14.00">CRUX: shared cause</text>
</g>
<!-- crux&#45;&gt;outcome -->
<g id="edge2" class="edge">
<title>crux&#45;&gt;outcome</title>
<path fill="none" stroke="black" d="M130.15,-130.7C130.15,-137.99 130.15,-146.67 130.15,-154.86"/>
<polygon fill="black" stroke="black" points="126.65,-154.78 130.15,-164.78 133.65,-154.78 126.65,-154.78"/>
</g>
<!-- causes -->
<g id="node3" class="node">
<title>causes</title>
<polygon fill="none" stroke="black" points="232.44,-58.4 27.85,-58.4 27.85,0 232.44,0 232.44,-58.4"/>
<text xml:space="preserve" text-anchor="middle" x="130.15" y="-41.8" font-family="Times,serif" font-size="14.00">SHARED CAUSES:</text>
<text xml:space="preserve" text-anchor="middle" x="130.15" y="-25" font-family="Times,serif" font-size="14.00">sources/assumptions; manuscript;</text>
<text xml:space="preserve" text-anchor="middle" x="130.15" y="-8.2" font-family="Times,serif" font-size="14.00">review criteria; root capacity</text>
</g>
<!-- causes&#45;&gt;crux -->
<g id="edge1" class="edge">
<title>causes&#45;&gt;crux</title>
<path fill="none" stroke="black" d="M130.15,-58.6C130.15,-66.5 130.15,-75.07 130.15,-82.97"/>
<polygon fill="black" stroke="black" points="126.65,-82.75 130.15,-92.75 133.65,-82.75 126.65,-82.75"/>
</g>
</g>
</svg>
