<?xml version="1.0" encoding="UTF-8" standalone="no"?>
<!DOCTYPE svg PUBLIC "-//W3C//DTD SVG 1.1//EN"
 "http://www.w3.org/Graphics/SVG/1.1/DTD/svg11.dtd">
<!-- Generated by graphviz version 16.0.0 (20260814.1018)
 -->
<!-- Title: software Pages: 1 -->
<svg width="269pt" height="379pt"
 viewBox="0.00 0.00 269.00 379.00" xmlns="http://www.w3.org/2000/svg" xmlns:xlink="http://www.w3.org/1999/xlink">
<g id="graph0" class="graph" transform="scale(1 1) rotate(0) translate(4 375.2)">
<title>software</title>
<polygon fill="white" stroke="none" points="-4,4 -4,-375.2 264.61,-375.2 264.61,4 -4,4"/>
<text xml:space="preserve" text-anchor="middle" x="130.31" y="-354.6" font-family="Times,serif" font-size="14.00">30 / calculation&#45;path outcomes</text>
<!-- usable -->
<g id="node1" class="node">
<title>usable</title>
<polygon fill="none" stroke="black" points="250.09,-346.4 10.52,-346.4 10.52,-310.4 250.09,-310.4 250.09,-346.4"/>
<text xml:space="preserve" text-anchor="middle" x="130.31" y="-324.2" font-family="Times,serif" font-size="14.00">OUTCOME: trusted maintainable paths</text>
</g>
<!-- paths -->
<g id="node2" class="node">
<title>paths</title>
<polygon fill="none" stroke="black" points="236.71,-196.8 23.91,-196.8 23.91,-155.2 236.71,-155.2 236.71,-196.8"/>
<text xml:space="preserve" text-anchor="middle" x="130.31" y="-180.2" font-family="Times,serif" font-size="14.00">DISTINCT CONSUMER PATHS:</text>
<text xml:space="preserve" text-anchor="middle" x="130.31" y="-163.4" font-family="Times,serif" font-size="14.00">scalar / finite window / minimizers</text>
</g>
<!-- trust -->
<g id="node5" class="node">
<title>trust</title>
<polygon fill="none" stroke="black" points="205.75,-274.4 54.87,-274.4 54.87,-232.8 205.75,-232.8 205.75,-274.4"/>
<text xml:space="preserve" text-anchor="middle" x="130.31" y="-257.8" font-family="Times,serif" font-size="14.00">Route&#45;specific evidence</text>
<text xml:space="preserve" text-anchor="middle" x="130.31" y="-241" font-family="Times,serif" font-size="14.00">see 32&#45;trust</text>
</g>
<!-- paths&#45;&gt;trust -->
<g id="edge3" class="edge">
<title>paths&#45;&gt;trust</title>
<path fill="none" stroke="black" d="M130.31,-197.26C130.31,-204.61 130.31,-213.09 130.31,-221.17"/>
<polygon fill="black" stroke="black" points="126.81,-221.03 130.31,-231.03 133.81,-221.03 126.81,-221.03"/>
</g>
<!-- shared -->
<g id="node3" class="node">
<title>shared</title>
<polygon fill="none" stroke="black" points="260.61,-119.2 0,-119.2 0,-77.6 260.61,-77.6 260.61,-119.2"/>
<text xml:space="preserve" text-anchor="middle" x="130.31" y="-102.6" font-family="Times,serif" font-size="14.00">SHARE ONLY ALIGNED CONTRACTS:</text>
<text xml:space="preserve" text-anchor="middle" x="130.31" y="-85.8" font-family="Times,serif" font-size="14.00">sigma / KKT / geometry</text>
</g>
<!-- shared&#45;&gt;paths -->
<g id="edge2" class="edge">
<title>shared&#45;&gt;paths</title>
<path fill="none" stroke="black" d="M130.31,-119.66C130.31,-127.01 130.31,-135.49 130.31,-143.57"/>
<polygon fill="black" stroke="black" points="126.81,-143.43 130.31,-153.43 133.81,-143.43 126.81,-143.43"/>
</g>
<!-- branches -->
<g id="node4" class="node">
<title>branches</title>
<polygon fill="none" stroke="black" points="183.2,-41.6 77.41,-41.6 77.41,0 183.2,0 183.2,-41.6"/>
<text xml:space="preserve" text-anchor="middle" x="130.31" y="-25" font-family="Times,serif" font-size="14.00">Candidate work</text>
<text xml:space="preserve" text-anchor="middle" x="130.31" y="-8.2" font-family="Times,serif" font-size="14.00">see 31&#45;branches</text>
</g>
<!-- branches&#45;&gt;shared -->
<g id="edge1" class="edge">
<title>branches&#45;&gt;shared</title>
<path fill="none" stroke="black" d="M130.31,-42.06C130.31,-49.41 130.31,-57.89 130.31,-65.97"/>
<polygon fill="black" stroke="black" points="126.81,-65.83 130.31,-75.83 133.81,-65.83 126.81,-65.83"/>
</g>
<!-- trust&#45;&gt;usable -->
<g id="edge4" class="edge">
<title>trust&#45;&gt;usable</title>
<path fill="none" stroke="black" d="M130.31,-274.88C130.31,-282.25 130.31,-290.74 130.31,-298.7"/>
<polygon fill="black" stroke="black" points="126.81,-298.67 130.31,-308.67 133.81,-298.67 126.81,-298.67"/>
</g>
</g>
</svg>
